<?xml version="1.0" encoding="UTF-8" standalone="no"?>
<!-- Created with Inkscape (http://www.inkscape.org/) -->

<svg
   width="512"
   height="512"
   viewBox="0 0 512 512"
   version="1.1"
   id="svg5"
   inkscape:version="1.2 (dc2aedaf03, 2022-05-15)"
   sodipodi:docname="Vista.svg"
   inkscape:export-filename="../../Midstall Software/vista/playground/public/favicon.png"
   inkscape:export-xdpi="96"
   inkscape:export-ydpi="96"
   xmlns:inkscape="http://www.inkscape.org/namespaces/inkscape"
   xmlns:sodipodi="http://sodipodi.sourceforge.net/DTD/sodipodi-0.dtd"
   xmlns="http://www.w3.org/2000/svg"
   xmlns:svg="http://www.w3.org/2000/svg">
  <sodipodi:namedview
     id="namedview7"
     pagecolor="#ffffff"
     bordercolor="#000000"
     borderopacity="0.25"
     inkscape:showpageshadow="2"
     inkscape:pageopacity="0.0"
     inkscape:pagecheckerboard="0"
     inkscape:deskcolor="#d1d1d1"
     inkscape:document-units="px"
     showgrid="false"
     inkscape:zoom="2"
     inkscape:cx="250"
     inkscape:cy="232.25"
     inkscape:window-width="2560"
     inkscape:window-height="1383"
     inkscape:window-x="1680"
     inkscape:window-y="30"
     inkscape:window-maximized="1"
     inkscape:current-layer="layer1" />
  <defs
     id="defs2">
    <filter
       style="color-interpolation-filters:sRGB;"
       inkscape:label="Drop Shadow"
       id="filter3441"
       x="-0.13593934"
       y="-0.057862364"
       width="1.3851615"
       height="1.1639434">
      <feFlood
         flood-opacity="0.498039"
         flood-color="rgb(0,0,0)"
         result="flood"
         id="feFlood3431" />
      <feComposite
         in="flood"
         in2="SourceGraphic"
         operator="in"
         result="composite1"
         id="feComposite3433" />
      <feGaussianBlur
         in="composite1"
         stdDeviation="3"
         result="blur"
         id="feGaussianBlur3435" />
      <feOffset
         dx="6"
         dy="6"
         result="offset"
         id="feOffset3437" />
      <feComposite
         in="SourceGraphic"
         in2="offset"
         operator="over"
         result="composite2"
         id="feComposite3439" />
    </filter>
    <filter
       inkscape:collect="always"
       style="color-interpolation-filters:sRGB"
       id="filter3459"
       x="-0.10842968"
       y="-0.12195533"
       width="1.2168594"
       height="1.2439107">
      <feGaussianBlur
         inkscape:collect="always"
         stdDeviation="23.670165"
         id="feGaussianBlur3461" />
    </filter>
  </defs>
  <g
     inkscape:label="Layer 1"
     inkscape:groupmode="layer"
     id="layer1">
    <path
       style="fill:#1a1b26;fill-opacity:1;stroke-width:0.506995;filter:url(#filter3459)"
       d="M 78.893703,487.24394 C 77.351241,481.50471 -5.2512155,123.91296 -5.1211835,123.53769 -5.0353625,123.29001 18.794372,100.64309 47.83378,73.211191 l 52.79893,-49.876178 21.27336,-0.02272 c 21.71875,-0.02319 192.8616,1.160917 255.16584,1.765457 l 34.48683,0.334627 53.42595,50.319701 c 29.38426,27.675834 53.59946,50.608294 53.81153,50.961024 0.21375,0.35552 -20.02203,81.20322 -45.40613,181.41056 l -45.79171,180.76923 -174.09955,0.12609 -174.09956,0.12609 z M 450.58556,299.32845 c 22.20154,-85.77136 40.49865,-156.528 40.66025,-157.23699 0.26814,-1.17632 -3.90225,-5.15601 -47.68624,-45.5057 l -47.98008,-44.216644 -20.60218,-0.01126 c -11.3312,-0.0062 -63.1617,-0.339599 -115.17889,-0.740899 C 207.78121,51.215659 155.03479,50.882254 142.58413,50.87606 L 119.94657,50.864801 72.869037,94.359186 C 46.360352,118.85024 25.835212,138.18463 25.891536,138.61128 c 0.120335,0.91157 74.399604,314.78153 74.792614,316.03913 0.26084,0.83466 7.96484,0.87206 154.90473,0.75216 l 154.63024,-0.12618 z"
       id="path3457" />
    <path
       style="fill:#1a1b26;stroke-width:3.63779;fill-opacity:1"
       d="M 5.2013405,126.29864 107.3091,27.776899 405.08021,29.981484 508.52275,129.60557 420.54702,484.86238 86.402534,484.73974 Z"
       id="path342"
       sodipodi:nodetypes="ccccccc" />
    <path
       style="fill:#24283b;stroke-width:3.18784;fill-opacity:1"
       d="m 35.512521,140.66767 90.468629,-85.390409 263.82857,1.910754 91.65125,86.345835 -77.94749,307.90702 -296.05577,-0.10616 z"
       id="path536"
       sodipodi:nodetypes="ccccccc" />
    <text
       xml:space="preserve"
       style="white-space:pre;inline-size:16.1111;display:inline;fill:#000000"
       x="345.78336"
       y="180.42036"
       id="text644" />
    <path
       style="fill:#a9b1d6;stroke-width:3.63779;fill-opacity:1"
       d="M 55.854531,141.57009 89.12683,111.66491 213.87152,405.618 l 83.92413,-2.09885 113.71976,-282.95441 31.35556,22.44499 -112.4968,283.18404 -144.67157,1.44376 z"
       id="path696"
       sodipodi:nodetypes="ccccccccc" />
    <path
       style="fill:#414868;stroke-width:0.491233;fill-opacity:1"
       d="M 107.57647,450.58341 C 107.45638,450.24569 91.322634,380.66868 71.723685,295.96784 52.124736,211.267 36.000185,141.71828 35.891349,141.41513 c -0.108836,-0.30314 20.120966,-19.725 44.955114,-43.159672 l 45.152997,-42.608498 23.45727,0.07021 c 12.90149,0.03861 49.21015,0.274674 80.6859,0.524577 31.47575,0.249903 80.23667,0.608248 108.3576,0.796322 l 51.12896,0.341952 45.64393,43.011779 c 25.10416,23.65648 45.63212,43.3533 45.6177,43.7707 -0.0144,0.41741 -17.47315,69.67103 -38.79717,153.89694 L 403.3227,451.19745 H 255.55875 c -117.76723,0 -147.80827,-0.12466 -147.98228,-0.61404 z m 189.61258,-23.82765 33.39696,-0.36557 56.12696,-141.22947 c 30.86983,-77.67621 56.07204,-141.56105 56.00491,-141.96632 -0.12309,-0.74311 -30.15157,-22.56731 -31.06468,-22.57729 -0.27018,-0.003 -26.02307,63.55375 -57.22864,141.23712 -46.72989,116.32971 -56.91069,141.2761 -57.71987,141.43305 -0.92017,0.17848 -82.43443,2.2011 -82.60654,2.04973 C 214.05448,405.2986 186.34964,340.056 152.53183,260.35345 118.71402,180.65091 90.628414,114.48997 90.119359,113.32915 l -0.925552,-2.11059 -16.719434,15.03409 c -9.195689,8.26874 -16.721641,15.18699 -16.724337,15.37387 -0.0027,0.18689 29.192622,64.66675 64.878484,143.28858 l 64.88339,142.94879 39.14009,-0.37128 c 21.52705,-0.2042 54.16872,-0.53579 72.53705,-0.73685 z"
       id="path808" />
    <path
       style="fill:#1a1b26;stroke-width:0.491233;fill-opacity:1"
       d="M 86.256382,482.75988 C 84.778247,477.13748 5.6206561,126.8249 5.7452651,126.45727 5.8275067,126.21463 28.663442,104.02871 56.491787,77.155216 l 50.596993,-48.860894 20.38617,-0.02226 c 20.81299,-0.02272 184.81847,1.137285 244.52436,1.729519 l 33.04859,0.327816 51.19786,49.295388 c 28.15882,27.112465 51.36414,49.578115 51.56737,49.923665 0.20484,0.34828 -19.18703,79.55024 -43.51251,177.71775 l -43.882,177.08947 -166.83888,0.12353 -166.838875,0.12352 z M 442.44714,298.66962 c 21.27564,-84.02539 38.80969,-153.34171 38.96455,-154.03626 0.25695,-1.15238 -3.73951,-5.05106 -45.69753,-44.57939 l -45.97911,-43.316566 -19.74298,-0.01103 c -10.85865,-0.0061 -60.5276,-0.332686 -110.37546,-0.725817 -49.84787,-0.39313 -100.39455,-0.719748 -112.32596,-0.725816 l -21.69348,-0.01103 -45.1142,42.609009 c -25.403163,23.99252 -45.072319,42.93333 -45.018344,43.3513 0.115316,0.89301 71.296824,308.37381 71.673444,309.60581 0.24996,0.81767 7.63268,0.85431 148.44456,0.73685 l 148.18152,-0.12361 z"
       id="path879" />
    <path
       style="fill:#414868;fill-opacity:1;stroke-width:0.491233"
       d="m 161.28807,450.71058 c -29.22432,-0.13749 -53.24085,-0.36051 -53.37007,-0.4956 -0.12923,-0.13509 -16.323365,-69.63947 -35.986975,-154.45419 l -35.75202,-154.20857 9.296734,-9.12813 c 5.113203,-5.02047 25.41035,-24.34956 45.10477,-42.953535 l 35.808041,-33.825404 34.9295,0.30988 c 19.21123,0.170434 67.42457,0.521897 107.14075,0.78103 39.71618,0.259133 83.24051,0.601251 96.72073,0.760262 l 24.50949,0.28911 20.68394,19.491709 c 52.50517,49.478758 70.05285,66.319298 70.05285,67.229838 0,0.71913 -19.71807,79.00828 -55.31381,219.61943 l -22.04205,87.07104 -94.32339,-0.11845 c -51.87786,-0.0651 -118.23419,-0.23094 -147.45849,-0.36842 z m 121.65118,-23.62731 c 26.33637,-0.27913 47.90705,-0.54927 47.93485,-0.6003 0.1297,-0.23808 55.37164,-139.42317 75.4895,-190.19993 35.73666,-90.19805 36.90009,-93.21902 36.12684,-93.80672 -13.14239,-9.98875 -29.76478,-21.87863 -30.58693,-21.87863 -0.8168,0 -8.6833,19.2576 -61.83384,151.3725 -31.99385,79.52626 -45.77014,113.52469 -50.03146,123.47232 l -3.15648,7.3685 -5.12366,0.31005 c -2.81801,0.17052 -21.33595,0.7038 -41.15097,1.18505 -30.04468,0.72971 -36.09478,0.76587 -36.43353,0.21775 -0.22342,-0.3615 -23.45351,-54.94268 -51.62241,-121.29152 -28.16891,-66.34883 -56.10038,-132.12909 -62.06994,-146.17835 -5.969556,-14.04926 -11.111006,-25.54411 -11.425439,-25.54411 -0.49479,0 -20.391847,17.62551 -30.286926,26.82921 l -3.37211,3.13651 10.07847,22.35084 c 9.689984,21.4893 58.662525,129.49369 100.091215,220.74191 l 19.81929,43.6527 24.83462,-0.31514 c 13.65904,-0.17332 46.38255,-0.54351 72.71891,-0.82264 z"
       id="path2180" />
    <path
       style="fill:#414868;fill-opacity:1;stroke-width:0.491233"
       d="m 161.28807,450.71058 c -29.22432,-0.13749 -53.24113,-0.36051 -53.37069,-0.4956 -0.20471,-0.21343 -70.600826,-303.34818 -71.35785,-307.27608 -0.269043,-1.39595 0.24605,-2.00525 8.720932,-10.31589 9.277017,-9.09723 20.373412,-19.65819 58.741778,-55.90732 l 22.23196,-21.003999 73.06723,0.525513 c 40.18698,0.289032 99.46744,0.730299 131.73436,0.980592 l 58.66713,0.455079 3.47384,3.381719 c 1.91061,1.859945 11.21075,10.650243 20.66699,19.533995 41.66825,39.145651 66.56206,63.064321 66.56206,63.954691 0,0.82443 -19.86292,79.63029 -66.11751,262.3204 l -11.22469,44.33377 -94.33022,-0.11845 c -51.88162,-0.0651 -118.24102,-0.23094 -147.46532,-0.36842 z m 119.20594,-23.60382 c 23.3704,-0.2551 44.26008,-0.46622 46.42151,-0.46916 l 3.92986,-0.005 1.67483,-4.29651 c 0.92115,-2.36307 13.266,-33.47574 27.433,-69.13925 69.21448,-174.23812 82.24835,-207.36545 82.3349,-209.26523 0.0618,-1.35588 -0.5881,-1.96635 -8.12854,-7.63572 -9.31105,-7.00062 -21.22598,-15.38745 -22.1396,-15.58391 -0.89477,-0.19241 -4.77691,9.27732 -57.44795,140.13307 -46.02477,114.3438 -56.8326,140.88246 -57.7462,141.79606 -0.62595,0.62595 -81.87013,2.83144 -82.46299,2.23858 C 214.10714,404.62365 199.66049,370.7233 161.8793,281.72209 82.206287,94.03623 89.565494,111.12528 88.637412,111.64467 c -0.604103,0.33807 -22.574014,19.99147 -29.869176,26.71976 l -3.37273,3.11065 14.989094,33.15823 c 8.244001,18.23702 31.9417,70.51649 52.66155,116.17659 20.71984,45.6601 43.22108,95.25343 50.00275,110.2074 l 12.3303,27.18904 26.31158,-0.31788 c 14.47136,-0.17483 45.43282,-0.5266 68.80323,-0.7817 z"
       id="path2182" />
    <path
       style="fill:#414868;fill-opacity:1;stroke-width:0.00767551"
       d="m 53.131533,216.73152 c -0.972172,-4.19933 -1.767452,-7.63774 -1.767288,-7.64091 1.65e-4,-0.003 0.0537,-0.006 0.118973,-0.006 h 0.118675 l 0.0076,0.0288 c 0.0042,0.0158 0.409994,1.76613 0.901807,3.88957 0.491812,2.12343 1.283119,5.53941 1.758459,7.59108 0.47534,2.05166 0.866235,3.7398 0.868655,3.75141 l 0.0044,0.0211 -0.121849,-8e-5 -0.121849,-8e-5 -1.767585,-7.63515 z"
       id="path2184" />
    <path
       style="fill:#414868;fill-opacity:1;stroke-width:0.00767551"
       d=""
       id="path2186" />
    <path
       style="fill:#414868;fill-opacity:1;stroke-width:0.00767551"
       d="m 54.653444,224.35721 c -0.0028,-0.008 -1.874605,-8.09963 -3.214132,-13.8946 l -0.317586,-1.37392 0.114807,-0.002 c 0.06314,-0.001 0.115499,-0.001 0.116346,0 0.0025,0.003 3.529422,15.2359 3.533114,15.25913 l 0.0034,0.0211 h -0.116244 c -0.08606,0 -0.117132,-0.002 -0.119659,-0.01 z"
       id="path2188" />
    <path
       style="fill:#414868;fill-opacity:1;stroke-width:0.00767551"
       d="m 55.014975,224.35944 -0.114409,-0.004 -0.881365,-3.80705 c -2.392982,-10.33649 -2.649724,-11.44785 -2.645588,-11.45198 0.0017,-0.002 0.053,-0.005 0.114046,-0.008 l 0.110988,-0.005 0.378746,1.63402 c 0.510677,2.2032 1.699562,7.33513 2.492756,10.7602 0.35684,1.54086 0.653431,2.82143 0.659093,2.8457 0.0057,0.0243 0.008,0.0434 0.0052,0.0425 -0.0028,-8.8e-4 -0.05656,-0.003 -0.119485,-0.006 z"
       id="path2190" />
    <path
       style="fill:#414868;fill-opacity:1;stroke-width:0.00767551"
       d="m 55.011005,224.35945 -0.110704,-0.004 -0.0097,-0.0422 c -0.0053,-0.0232 -0.345155,-1.49116 -0.755184,-3.2621 -0.771877,-3.33377 -0.954916,-4.12446 -1.320184,-5.7029 -0.118694,-0.51292 -0.26378,-1.13982 -0.322413,-1.39311 -0.904487,-3.90733 -1.122831,-4.85511 -1.119302,-4.85864 0.0017,-0.002 0.0531,-0.005 0.114185,-0.008 l 0.111056,-0.005 0.03628,0.15651 c 0.531816,2.29419 1.182976,5.10413 1.590831,6.8649 0.166235,0.71766 0.439068,1.89547 0.606297,2.61735 0.167228,0.72189 0.504377,2.17774 0.74922,3.23523 0.244842,1.0575 0.467523,2.01903 0.494845,2.13675 0.02732,0.11772 0.05268,0.22738 0.05634,0.2437 0.0048,0.0212 0.0042,0.0292 -0.0021,0.0281 -0.0048,-8.8e-4 -0.0586,-0.003 -0.119482,-0.006 z"
       id="path2192" />
    <path
       style="fill:#414868;fill-opacity:1;stroke-width:0.00767551"
       d="m 54.991665,224.35951 -0.09166,-0.004 -0.52775,-2.27963 c -0.290262,-1.25379 -0.576083,-2.48859 -0.635156,-2.74399 -0.05907,-0.2554 -0.318107,-1.37449 -0.57563,-2.48687 -1.597586,-6.90079 -1.792188,-7.74421 -1.78783,-7.74857 0.0019,-0.002 0.05345,-0.006 0.114475,-0.009 l 0.110951,-0.005 0.486362,2.09845 c 0.447353,1.93014 0.689495,2.9752 1.097989,4.73882 0.08409,0.36305 0.317324,1.36989 0.518297,2.23741 0.634206,2.73764 1.422727,6.14297 1.430285,6.17687 l 0.0073,0.0326 -0.02797,-0.002 c -0.01538,-8.5e-4 -0.06922,-0.003 -0.119633,-0.006 z"
       id="path2194" />
    <path
       style="fill:#414868;fill-opacity:1;stroke-width:0.00767551"
       d="m 54.979988,224.35955 -0.08032,-0.004 -0.01322,-0.0576 c -0.0073,-0.0317 -0.08922,-0.3857 -0.182097,-0.78674 -1.0947,-4.72672 -2.924394,-12.63385 -3.198361,-13.82191 -0.07474,-0.32412 -0.134307,-0.5909 -0.132365,-0.59284 0.0019,-0.002 0.05352,-0.006 0.114613,-0.009 l 0.111083,-0.005 0.03976,0.1719 c 0.02187,0.0945 0.119459,0.51557 0.216873,0.93561 0.370403,1.59716 0.730906,3.15289 1.753716,7.56806 0.479687,2.07066 0.925257,3.99453 0.990156,4.27526 0.112284,0.4857 0.529911,2.29158 0.536508,2.31992 0.0034,0.0148 0.0054,0.0147 -0.156346,0.006 z"
       id="path2196" />
    <path
       style="fill:#414868;fill-opacity:1;stroke-width:0.00767551"
       d="m 54.972111,224.35958 -0.07284,-0.004 -0.143866,-0.62171 c -0.162415,-0.70188 -0.624438,-2.69783 -0.773766,-3.34269 -0.116165,-0.50165 -0.171183,-0.7393 -0.663703,-2.86681 -0.814693,-3.51918 -1.742431,-7.531 -1.896164,-8.19958 -0.02842,-0.1236 -0.04997,-0.22644 -0.04788,-0.22853 0.0021,-0.002 0.05398,-0.006 0.11531,-0.009 l 0.111512,-0.005 0.0081,0.0376 c 0.0045,0.0207 0.179493,0.77677 0.388943,1.68017 0.35668,1.53845 1.496799,6.45938 2.234462,9.64429 0.179419,0.77465 0.455642,1.968 0.61383,2.65189 0.158189,0.68389 0.289469,1.24948 0.291735,1.25686 0.0045,0.0148 -0.0103,0.0154 -0.1657,0.006 z"
       id="path2198" />
    <path
       style="fill:#414868;fill-opacity:1;stroke-width:0.00767551"
       d="m 54.96436,224.35962 -0.06524,-0.004 -0.08973,-0.38761 c -0.04935,-0.21319 -0.559486,-2.41683 -1.133637,-4.89698 -2.146975,-9.27426 -2.307348,-9.96924 -2.301772,-9.97482 0.0066,-0.007 0.228502,-0.0141 0.228502,-0.008 0,0.003 0.01533,0.0719 0.03408,0.15277 0.01874,0.0809 0.210638,0.90868 0.426436,1.83953 0.215799,0.93085 0.533577,2.30208 0.706174,3.04718 0.172598,0.7451 0.516269,2.22858 0.763714,3.29663 0.651963,2.81408 1.450159,6.26121 1.531137,6.61246 0.03844,0.16675 0.0717,0.30923 0.0739,0.31661 0.0036,0.012 -0.0019,0.0133 -0.05216,0.012 -0.03089,-7.9e-4 -0.08552,-0.003 -0.121407,-0.006 z"
       id="path2200" />
    <path
       style="fill:#414868;fill-opacity:1;stroke-width:0.00767551"
       d="m 54.95713,224.35967 -0.05712,-0.004 -0.0096,-0.0384 c -0.0091,-0.0364 -1.978034,-8.54028 -2.47817,-10.7035 -0.07759,-0.33561 -0.253751,-1.09722 -0.391462,-1.69245 -0.210018,-0.90778 -0.575477,-2.49229 -0.634279,-2.75003 -0.0089,-0.0392 -0.01444,-0.0731 -0.01222,-0.0753 0.0057,-0.006 0.228247,-0.0141 0.228247,-0.009 0,0.003 0.0503,0.2215 0.111771,0.48665 0.06147,0.26515 0.149331,0.64443 0.195238,0.84284 0.04591,0.19841 0.199589,0.86157 0.341515,1.4737 0.468527,2.02075 1.921011,8.29171 2.406262,10.38881 0.262278,1.13348 0.478622,2.06692 0.480765,2.0743 0.0035,0.0121 -0.0024,0.0133 -0.05994,0.012 -0.03511,-7.6e-4 -0.08955,-0.003 -0.120961,-0.006 z"
       id="path2202" />
    <path
       style="fill:#414868;fill-opacity:1;stroke-width:0.00767551"
       d="m 54.960522,224.36107 c -0.02955,-0.002 -0.05606,-0.005 -0.05892,-0.008 -0.0043,-0.004 -0.621399,-2.66544 -2.074993,-8.94734 -1.077456,-4.65637 -1.441088,-6.23143 -1.450589,-6.28317 l -0.0051,-0.0276 0.04782,-0.005 c 0.0263,-0.003 0.07802,-0.005 0.114937,-0.005 0.06322,0 0.06737,0.001 0.07143,0.0173 0.0091,0.0367 1.995301,8.61007 2.895279,12.49765 0.347915,1.50287 0.63442,2.74026 0.636679,2.74976 0.004,0.0169 0.0029,0.0172 -0.05936,0.0158 -0.03491,-8.2e-4 -0.08765,-0.003 -0.117198,-0.004 z"
       id="path2204" />
    <path
       style="fill:#414868;fill-opacity:1;stroke-width:0.00767551"
       d="m 54.952847,224.36109 c -0.02533,-0.002 -0.04841,-0.005 -0.05129,-0.008 -0.0029,-0.003 -0.02598,-0.0951 -0.05135,-0.2049 -0.02536,-0.10976 -0.122097,-0.52769 -0.214969,-0.92873 -1.955293,-8.44348 -3.143315,-13.58007 -3.240316,-14.01 -0.01361,-0.0603 -0.02263,-0.11175 -0.02005,-0.11433 0.0026,-0.003 0.0544,-0.006 0.115162,-0.008 l 0.110477,-0.004 0.02785,0.11807 c 0.02415,0.1024 0.424379,1.82972 1.830714,7.90105 0.786844,3.39691 1.274839,5.50376 1.465816,6.32846 0.113889,0.49181 0.209455,0.9037 0.21237,0.91531 l 0.0053,0.0211 -0.07183,-0.001 c -0.03951,-7.9e-4 -0.09256,-0.003 -0.117884,-0.004 z"
       id="path2206" />
    <path
       style="fill:#1a1b26;fill-opacity:1;stroke-width:0.00767551"
       d="m 54.936849,224.36119 -0.03902,-0.003 -0.01221,-0.0553 c -0.0067,-0.0304 -0.111105,-0.48186 -0.231977,-1.00322 -0.120872,-0.52136 -0.27807,-1.20007 -0.349329,-1.50824 -0.07126,-0.30817 -0.459837,-1.98681 -0.863506,-3.7303 -1.288766,-5.56633 -2.017198,-8.71839 -2.05725,-8.90209 -0.0072,-0.0329 -0.01102,-0.0619 -0.0085,-0.0644 0.0025,-0.002 0.05451,-0.006 0.115587,-0.008 l 0.111054,-0.004 0.0044,0.0183 c 0.0024,0.0101 0.215165,0.92844 0.472824,2.04081 0.257659,1.11238 0.615316,2.65631 0.794794,3.43096 0.179477,0.77465 0.424321,1.83157 0.544097,2.34871 0.119777,0.51713 0.331787,1.43244 0.471133,2.03401 0.139347,0.60157 0.448512,1.93653 0.687033,2.96658 0.238521,1.03006 0.463222,1.99995 0.499336,2.15531 0.03611,0.15536 0.06566,0.28402 0.06566,0.28591 0,0.004 -0.141781,0.002 -0.204048,-0.002 z"
       id="path2208" />
    <path
       style="fill:#a9b1d6;fill-opacity:1;stroke-width:0.0220971"
       d="m 103.47258,247.07305 c -0.0284,-0.0638 -1.99112,-4.39179 -4.36149,-9.61775 -2.370373,-5.22597 -6.723236,-14.8266 -9.673029,-21.33474 -2.949793,-6.50815 -5.471602,-12.07128 -5.604021,-12.36252 -0.132418,-0.29123 -0.24076,-0.53786 -0.24076,-0.54805 0,-0.0102 0.0504,-0.0155 0.112007,-0.0119 l 0.112007,0.007 9.963912,21.95151 c 5.480151,12.07333 9.969714,21.96979 9.976804,21.99213 0.0115,0.0361 -7.9e-4,0.0406 -0.11041,0.0406 h -0.12331 z"
       id="path3080" />
    <path
       style="fill:#a9b1d6;fill-opacity:1;stroke-width:0.0220971"
       d="M 98.244701,236.10146 C 92.959246,224.44239 83.47127,203.50835 83.381942,203.30864 l -0.05239,-0.11714 0.113093,0.007 0.113093,0.007 0.270452,0.59662 c 0.148748,0.32814 2.683992,5.92147 5.633875,12.42961 7.346521,16.20818 13.975165,30.82398 14.012705,30.89726 l 0.0311,0.0608 -0.11658,-4e-4 -0.11657,-3.9e-4 -5.026044,-11.08683 z"
       id="path3082" />
    <path
       style="fill:#a9b1d6;fill-opacity:1;stroke-width:0.0441942"
       d="M 97.492347,233.24823 C 86.542136,209.12036 77.558965,189.32301 77.529744,189.25413 l -0.05313,-0.12525 22.252938,0.0111 22.252948,0.0111 18.55752,43.73014 c 10.20664,24.05157 18.60701,43.84449 18.66749,43.98425 l 0.10996,0.25412 -20.95782,-0.001 -20.95783,-10e-4 z"
       id="path3360" />
    <path
       style="fill:#a9b1d6;fill-opacity:1;stroke-width:0.0441942"
       d="m 117.08862,277.0592 c -0.0127,-0.0332 -3.06289,-6.76011 -6.77811,-14.94868 -5.99991,-13.22415 -6.74499,-14.88997 -6.66577,-14.9031 0.0491,-0.008 0.10513,0.002 0.12463,0.0221 0.0344,0.0358 13.56616,29.83032 13.56616,29.87021 0,0.0501 -0.22638,0.013 -0.24691,-0.0405 z"
       id="path3362" />
    <path
       style="fill:#a9b1d6;fill-opacity:1;stroke-width:0.0441942"
       d="m 117.19028,277.07973 c -0.113,-0.0411 -13.28075,-29.07578 -13.48582,-29.73599 -0.017,-0.0547 -0.013,-0.0994 0.009,-0.0994 0.0218,0 0.10992,0.15412 0.19579,0.3425 1.4302,3.1377 11.50026,25.30425 12.29828,27.07141 0.60159,1.33216 1.08662,2.42844 1.07786,2.43618 -0.009,0.008 -0.0515,0.001 -0.0949,-0.0147 z"
       id="path3364" />
    <path
       style="fill:#a9b1d6;fill-opacity:1;stroke-width:0.0441942"
       d="m 113.04834,268.71162 c -2.09788,-4.62436 -5.13518,-11.32055 -6.74955,-14.88041 -1.61437,-3.55985 -2.95432,-6.50816 -2.97767,-6.55178 -0.0353,-0.066 -0.0247,-0.0793 0.0635,-0.0793 0.0982,0 0.58155,1.04847 6.61662,14.35206 3.58088,7.89363 6.63523,14.62551 6.78744,14.95973 0.26534,0.58264 0.27257,0.60767 0.17537,0.60767 -0.092,0 -0.45484,-0.77916 -3.91569,-8.40795 z"
       id="path3366" />
    <path
       style="fill:#a9b1d6;fill-opacity:1;stroke-width:0.0441942"
       d="m 115.58386,273.10818 c -1.5235,-3.36038 -9.8697,-21.74985 -24.234559,-53.39685 -1.56118,-3.43941 -3.520006,-7.75497 -4.352948,-9.59013 -0.832941,-1.83516 -2.092194,-4.60945 -2.798339,-6.16509 -0.706145,-1.55563 -2.507066,-5.52317 -4.002045,-8.81674 l -2.718145,-5.98831 22.235746,-0.0111 c 12.22966,-0.006 22.24899,0.004 22.26517,0.0221 0.0162,0.0182 3.98236,9.35042 8.81372,20.73816 8.43172,19.87392 10.97841,25.87572 21.43416,50.51394 2.59425,6.11316 5.19359,12.23847 5.77631,13.6118 0.58273,1.37334 1.11658,2.63121 1.18632,2.79529 l 0.12681,0.29831 -20.95712,-7.5e-4 -20.95712,-7.6e-4 -1.81796,-4.00985 z"
       id="path3368" />
    <path
       style="fill:#a9b1d6;fill-opacity:1;stroke-width:0.0441942"
       d="m 116.13405,274.32374 c -2.17259,-4.78936 -3.83168,-8.44522 -6.874,-15.14701 -2.93244,-6.45977 -4.17418,-9.19563 -6.61933,-14.58408 -0.71142,-1.56778 -2.02936,-4.47134 -2.928741,-6.45234 -0.899383,-1.98101 -2.912392,-6.41589 -4.473354,-9.85531 -1.560961,-3.43941 -3.569465,-7.86435 -4.463341,-9.8332 -0.893877,-1.96885 -2.65388,-5.84689 -3.911119,-8.61786 -1.25724,-2.77098 -2.530005,-5.5751 -2.828368,-6.23138 -0.536263,-1.17957 -4.086885,-9.00221 -5.71691,-12.59534 l -0.842045,-1.85616 22.236237,-0.0111 c 12.229931,-0.006 22.249401,0.004 22.265481,0.0221 0.0161,0.0182 0.60689,1.39547 1.31291,3.06049 1.29895,3.06335 4.14743,9.77665 9.35713,22.05289 5.93403,13.9831 8.00694,18.86771 10.17452,23.97534 1.22753,2.89251 3.23192,7.61576 4.45419,10.49612 1.22228,2.88035 3.12128,7.35501 4.22002,9.94369 1.09873,2.58867 2.52484,5.94964 3.16913,7.46881 0.6443,1.51918 1.92295,4.53211 2.84146,6.69542 0.9185,2.1633 1.70095,4.00786 1.73878,4.09901 l 0.0688,0.16573 -20.95682,-5.3e-4 -20.95684,-5.3e-4 -1.26777,-2.79473 z"
       id="path3370" />
    <path
       style="fill:#a9b1d6;fill-opacity:1;stroke-width:0.0441942"
       d="m 112.43189,266.17046 c -2.7332,-6.02201 -5.67831,-12.51027 -6.54468,-14.41835 -0.86638,-1.90808 -2.10303,-4.63265 -2.74811,-6.0546 -0.64509,-1.42195 -2.40047,-5.29004 -3.900864,-8.59577 -6.764013,-14.90277 -8.035464,-17.70401 -9.457946,-20.83755 -0.833079,-1.83516 -2.6427,-5.82258 -4.021381,-8.86093 -1.378682,-3.03835 -2.701289,-5.95185 -2.939127,-6.47445 -1.221096,-2.68308 -5.235387,-11.53182 -5.28794,-11.65626 l -0.06068,-0.14367 22.257796,0.0111 22.257802,0.0111 0.50705,1.19325 c 1.13186,2.6636 10.22033,24.07814 18.97198,44.7024 7.34906,17.31889 11.71194,27.59923 15.6328,36.83585 1.15562,2.72236 2.12845,5.01438 2.16186,5.09338 l 0.0607,0.14363 h -20.95992 -20.95991 z"
       id="path3372" />
    <path
       style="fill:#a9b1d6;fill-opacity:1;stroke-width:0.0441942"
       d="m 115.87997,273.77186 c -5.41171,-11.92432 -6.96568,-15.34789 -8.52045,-18.77148 -0.96035,-2.11469 -2.12922,-4.6901 -2.59748,-5.72314 -0.46827,-1.03304 -1.64145,-3.6184 -2.60707,-5.74525 -0.96563,-2.12684 -2.337778,-5.14972 -3.049227,-6.71751 -0.711448,-1.56779 -2.570882,-5.66459 -4.132074,-9.104 -1.561193,-3.43941 -3.962274,-8.72945 -5.335737,-11.75565 -1.373462,-3.0262 -3.129101,-6.89429 -3.901419,-8.59577 -0.772319,-1.70147 -2.6814,-5.90765 -4.242403,-9.34706 -1.561003,-3.43942 -3.096281,-6.82027 -3.41173,-7.51301 -0.315449,-0.69275 -0.58388,-1.28442 -0.596513,-1.31482 -0.01837,-0.0442 4.43411,-0.0531 22.24037,-0.0442 l 22.263343,0.0111 1.27581,3.00521 c 2.51116,5.91507 4.98913,11.75334 7.24045,17.05895 5.79978,13.66819 9.37482,22.09241 10.85913,25.58843 0.88752,2.09038 2.02665,4.77518 2.53141,5.96621 0.50475,1.19103 2.23047,5.258 3.83494,9.03771 3.76198,8.86222 7.86975,18.54136 8.56201,20.17464 0.29876,0.70489 1.084,2.55442 1.74495,4.11006 0.66096,1.55563 1.21924,2.87317 1.24063,2.92786 l 0.0389,0.0994 h -20.95926 -20.95926 z"
       id="path3374" />
    <path
       style="fill:#a9b1d6;fill-opacity:1;stroke-width:0.044;stroke-dasharray:none"
       d="m 116.18849,274.45687 c -3.01601,-6.64618 -8.0206,-17.67253 -10.255,-22.59427 -2.45095,-5.39874 -4.33167,-9.54248 -5.54615,-12.21969 -0.600948,-1.32472 -1.87367,-4.12884 -2.828276,-6.23138 -0.954606,-2.10254 -2.665035,-5.8712 -3.800953,-8.3748 -1.135919,-2.5036 -2.210055,-4.8702 -2.38697,-5.2591 -0.284958,-0.62642 -3.551802,-7.82357 -7.291847,-16.06459 -0.711514,-1.56778 -2.481272,-5.46571 -3.932796,-8.66205 -1.451525,-3.19635 -2.64914,-5.83642 -2.661368,-5.86682 -0.01778,-0.0442 4.4354,-0.0531 22.242305,-0.0442 l 22.264545,0.0111 1.34137,3.15989 c 0.73776,1.73793 1.9658,4.63155 2.72899,6.43025 0.76318,1.7987 1.78444,4.20507 2.26946,5.34749 0.48503,1.14242 2.58659,6.09438 4.67014,11.00435 2.08355,4.90998 4.51,10.6276 5.39212,12.70583 0.88212,2.07823 3.16915,7.46771 5.08231,11.97662 1.91315,4.50891 4.06524,9.58019 4.78243,11.26951 0.71719,1.68933 2.58677,6.09438 4.15464,9.78901 1.56786,3.69464 3.74551,8.82558 4.83921,11.4021 1.0937,2.57652 2.00579,4.72933 2.02686,4.78402 l 0.0383,0.0994 h -20.9605 -20.9605 z"
       id="path3376" />
    <path
       style="fill:#a9b1d6;fill-opacity:1;stroke-width:0.00275;stroke-dasharray:none"
       d=""
       id="path3417" />
    <path
       style="fill:#a9b1d6;fill-opacity:1;stroke-width:0.00275;stroke-dasharray:none"
       d=""
       id="path3419" />
    <path
       style="fill:#a9b1d6;fill-opacity:1;stroke-width:0.00275;stroke-dasharray:none"
       d="m 162.13343,376.85937 c -0.0639,-0.1195 -0.11776,-0.23801 -3.91482,-8.60937 -1.43444,-3.1625 -2.81275,-6.2 -3.06291,-6.75 -0.25016,-0.55 -1.62829,-3.5875 -3.0625,-6.75 -1.43421,-3.1625 -2.81234,-6.2 -3.0625,-6.75 -0.25016,-0.55 -1.62808,-3.5875 -3.06205,-6.75 -1.43396,-3.1625 -2.88234,-6.35469 -3.21863,-7.09375 -0.33628,-0.73906 -1.71441,-3.77656 -3.06252,-6.75 -1.34811,-2.97344 -2.72628,-6.01094 -3.06261,-6.75 -0.33633,-0.73906 -1.78496,-3.93125 -3.21918,-7.09375 -1.43422,-3.1625 -2.81235,-6.2 -3.06251,-6.75 -0.25016,-0.55 -1.62829,-3.5875 -3.0625,-6.75 -1.43421,-3.1625 -2.81234,-6.2 -3.0625,-6.75 -0.25016,-0.55 -1.48773,-3.27813 -2.75017,-6.0625 -1.26243,-2.78438 -2.80064,-6.17344 -3.41826,-7.53125 -0.61761,-1.35781 -1.1358,-2.49922 -1.15154,-2.53646 -0.0157,-0.0372 0.0126,-0.0677 0.0631,-0.0677 0.0595,0 0.37589,0.62656 0.90206,1.78646 0.44571,0.98255 10.5761,23.30208 22.51198,49.59896 11.93587,26.29687 21.76711,47.96016 21.84719,48.14062 0.11322,0.25515 0.126,0.32813 0.0575,0.32813 -0.0485,0 -0.11442,-0.0492 -0.14658,-0.10938 z"
       id="path3421" />
    <path
       style="fill:#a9b1d6;fill-opacity:1;stroke-width:0.00275;stroke-dasharray:none"
       d="m 162.34869,376.73437 c -0.0616,-0.1289 -9.73072,-21.42656 -21.487,-47.32812 -11.75627,-25.90156 -21.88126,-48.20469 -22.49998,-49.5625 -0.61871,-1.35781 -1.1393,-2.51797 -1.15686,-2.57813 -0.0527,-0.18045 0.14156,-0.12769 0.23008,0.0625 0.52088,1.11913 45.14961,99.4516 45.1728,99.53125 0.0615,0.21121 -0.14634,0.11092 -0.25904,-0.125 z"
       id="path3423" />
    <path
       style="fill:#a9b1d6;fill-opacity:1;stroke-width:0.00275;stroke-dasharray:none"
       d=""
       id="path3425" />
    <path
       style="fill:#a9b1d6;fill-opacity:1;stroke-width:0.00275;stroke-dasharray:none"
       d="m 173.34273,309.29687 c -32.65674,-76.94039 -36.78023,-86.66195 -36.78023,-86.7132 0,-0.0288 0.0371,-0.0524 0.0824,-0.0524 0.0453,0 0.19619,0.27422 0.33527,0.60937 0.13909,0.33516 1.08934,2.57813 2.11168,4.98438 1.02234,2.40625 2.68244,6.31562 3.68912,8.6875 1.00667,2.37187 2.46314,5.80312 3.23658,7.625 0.77345,1.82187 2.43591,5.73828 3.69437,8.70312 1.25845,2.96485 3.31775,7.81641 4.5762,10.78125 1.25846,2.96485 2.9207,6.88125 3.69387,8.70313 3.72537,8.77838 8.92818,21.03133 9.58041,22.5625 0.33678,0.79062 1.20871,2.84375 1.93762,4.5625 0.72891,1.71875 1.60084,3.77187 1.93761,4.5625 0.33678,0.79062 1.44761,3.40625 2.46853,5.8125 1.02091,2.40625 2.1318,5.02187 2.46864,5.8125 0.33683,0.79062 1.20881,2.84375 1.93772,4.5625 0.72891,1.71875 1.60079,3.77187 1.9375,4.5625 0.33671,0.79062 1.20308,2.82969 1.92525,4.53125 0.99786,2.35111 5.75322,13.54446 7.20233,16.95312 0.16204,0.38117 0.16851,0.42188 0.067,0.42188 -0.0903,0 -3.24802,-7.38778 -16.10186,-37.67188 z"
       id="path3427" />
    <path
       style="fill:#a9b1d6;fill-opacity:1;stroke-width:0.00275;stroke-dasharray:none;filter:url(#filter3441)"
       d="m 162.62712,284.77817 c -14.51549,-34.20481 -26.37565,-62.20672 -26.35591,-62.22647 0.0198,-0.0197 0.0723,-0.0216 0.11672,-0.004 0.0444,0.0175 2.72197,6.25767 5.95005,13.8671 3.22808,7.60942 15.09213,35.56188 26.36456,62.11657 11.27243,26.55469 20.51007,48.31641 20.52808,48.35937 0.0197,0.047 -0.0159,0.0781 -0.0895,0.0781 -0.10354,0 -4.15749,-9.50883 -26.51403,-62.19058 z"
       id="path3429" />
  </g>
</svg>
